/* XPM */
static char *result[] = {
/* columns rows colors chars-per-pixel */
"16 16 59 1 ",
"  c gray8",
". c gray11",
"X c #231B15",
"o c #261C15",
"O c #352317",
"+ c gray13",
"@ c #252525",
"# c #272727",
"$ c #2D2D2D",
"% c #323232",
"& c #6D3D1B",
"* c #7C431C",
"= c #774726",
"- c #7E4D2C",
"; c #464646",
": c gray31",
"> c #594F48",
", c #515151",
"< c gray33",
"1 c gray35",
"2 c gray37",
"3 c #635B55",
"4 c gray38",
"5 c #646464",
"6 c #676767",
"7 c #6F6F6F",
"8 c #727272",
"9 c #777777",
"0 c gray48",
"q c #85471D",
"w c #8E4C1E",
"e c #97501F",
"r c #8D5025",
"t c #A65620",
"y c #DE7024",
"u c #ED7725",
"i c #F07826",
"p c #FF7F27",
"a c #89807B",
"s c #FE9044",
"d c gray51",
"f c #848484",
"g c #868686",
"h c gray54",
"j c #8D8D8D",
"k c gray56",
"l c gray57",
"z c gray60",
"x c gray62",
"c c #A4A4A4",
"v c #B7B7B7",
"b c #FCB483",
"n c #FBBE94",
"m c #CACACA",
"M c #D2D2D2",
"N c #D7D7D7",
"B c gray86",
"V c #E2E2E2",
"C c gray91",
/* pixels */
"sssssssssssssssn",
"pppptOOOOOwppppb",
"pppt>ggggg3wpppb",
"ppt>kzzzzzl3wppb",
"ppe:zzzzzzvfXwpb",
"pto.1zzzzvVBmawb",
"pe  .###1xc8%-ub",
"pe     5Mj9f&upb",
"piq 5m08Ch8h*ppb",
"ppiq8CBNCBNh*ppb",
"ppt>4%dCCm8-uppb",
"ppe:2 +%%$=upppb",
"ppe.7m0   XOwppb",
"pt><8Ch;g<;g3wpb",
"pe:l4%@.#,k6=upb",
"pir#=yyyq.#=uppb"
};
