/* XPM */
static char *result[] = {
/* columns rows colors chars-per-pixel */
"16 16 13 1 ",
"  c gray8",
". c #673A1B",
"X c #434343",
"o c #5F5F5F",
"O c #6A6A6A",
"+ c #AC5920",
"@ c #FF7F27",
"# c #FDAA70",
"$ c gray60",
"% c #9D9D9D",
"& c gray71",
"* c gray80",
"= c gray91",
/* pixels */
"#@@@@@@@@@@@@@@@",
"#@@@@.     +@@@@",
"#@@@.O$$$$$X+@@@",
"#@@.O$$$$$$$X+@@",
"#@@.O$$$$$$$X+@@",
"#@.  O*===&X  +@",
"#@.           +@",
"#.%o%=======o%o+",
"#.%===o%=o%===o+",
"#@. %=o%=o%=o  +",
"#@.OX%=&$*=o %o+",
"#@.%o         +@",
"#@. %=o   OX +@@",
"#@@.%=oO$X  +@@@",
"#@@@. +. O$X+@@@",
"#@@@@@@@.  +@@@@"
};
