/* XPM */
static char *result[] = {
/* columns rows colors chars-per-pixel */
"16 16 13 1 ",
"  c gray8",
". c #2F2016",
"X c #232323",
"o c #2C2C2C",
"O c #E47325",
"+ c #FF7F27",
"@ c #FE8D3F",
"# c gray54",
"$ c gray60",
"% c #A2A2A2",
"& c #D0D0D0",
"* c #DFDFDF",
"= c gray91",
/* pixels */
"@+++++++++++++++",
"@++++.     O++++",
"@+++.#$$$$$XO+++",
"@++.#$$$$$$$XO++",
"@++.#$$$$$$$XO++",
"@+. #$$$$$$$X O+",
"@+.  #$$$$$X  O+",
"@.&o         &oO",
"@.&=o       &=oO",
"@+. &=o   &=o  O",
"@+.   #$$$X  &oO",
"@.&=o#X   #X  O+",
"@.&=o#$*=%$X O++",
"@+.   #$$$X O+++",
"@+++++.   #XO+++",
"@+++++++.  O++++"
};
