/* XPM */
static char *result[] = {
/* columns rows colors chars-per-pixel */
"16 16 61 1 ",
"  c gray8",
". c #2A1E16",
"X c #332216",
"o c #202020",
"O c gray15",
"+ c #282828",
"@ c gray19",
"# c #323232",
"$ c gray24",
"% c #3F3F3F",
"& c #492C18",
"* c #60371A",
"= c #76411C",
"- c #7E441D",
"; c #72482C",
": c #7C5336",
"> c #444444",
", c #4C4C4C",
"< c #5E4D42",
"1 c #505050",
"2 c #535353",
"3 c gray35",
"4 c gray36",
"5 c #5D5D5D",
"6 c #665A51",
"7 c #78675B",
"8 c gray38",
"9 c #656565",
"0 c #6A6A6A",
"q c #6D6D6D",
"w c gray43",
"e c gray45",
"r c #7B7B7B",
"t c #954F1E",
"y c #9D521F",
"u c #8A5029",
"i c #915830",
"p c #B35C21",
"a c #CA6723",
"s c #E07124",
"d c #E97525",
"f c #FF7F27",
"g c #897D75",
"h c #FD9A56",
"j c #FCB27E",
"k c gray53",
"l c #898989",
"z c #8D8D8D",
"x c gray56",
"c c gray60",
"v c gray62",
"b c gray64",
"n c #B1B1B1",
"m c gray72",
"M c gray73",
"N c #BCBCBC",
"B c #FBC29A",
"V c gray78",
"C c gray80",
"Z c gray83",
"A c gray91",
/* pixels */
"jjjjjjjjjjjjjjjB",
"ffffs=====tffffh",
"fffs;888886tfffh",
"ffs;wcccccz6tffh",
"ffa#cccccccr&ffh",
"fs*o5bVVVNk%.tfh",
"fa  o2qqq9%  &fh",
"s:e@xxxxxxxe@gth",
"a>ZbAClAClAZbm&h",
"a+qlAm>Am>ACq7ph",
"a@e+lZcMnbC01&fh",
"di3 +q9,2q3$v&fh",
"fd- O1   @xk3&fh",
"ffd-o%O81>AmXpfh",
"fffaO84,<iq7pffh",
"fffdu,%Xpdypfffh"
};
