/* XPM */
static char *f3affcf86d704d2ec8b9b05e380f669df8nHmpEeSZ7E3VzO[] = {
/* columns rows colors chars-per-pixel */
"16 16 52 1 ",
"  c gray8",
". c #1D1D1D",
"X c #231B15",
"o c #241C15",
"O c #332216",
"+ c gray13",
"@ c gray15",
"# c gray19",
"$ c #713E1B",
"% c #7A4825",
"& c #484848",
"* c #59504A",
"= c #515151",
"- c gray34",
"; c #5A5A5A",
": c gray36",
"> c #615A54",
", c #606060",
"< c #646464",
"1 c #686868",
"2 c #786F69",
"3 c gray46",
"4 c #7C7C7C",
"5 c #83471D",
"6 c #904C1E",
"7 c #8B4F25",
"8 c #A25520",
"9 c #E07124",
"0 c #EE7726",
"q c #F07826",
"w c #FF7F27",
"e c #877F79",
"r c #8D847E",
"t c #FE8F43",
"y c #808080",
"u c #848484",
"i c gray57",
"p c gray58",
"a c gray60",
"s c #9F9F9F",
"d c gray65",
"f c gray69",
"g c #BCBCBC",
"h c #EBAF85",
"j c #FCB686",
"k c #FBBF95",
"l c #C3C3C3",
"z c gray77",
"x c gray80",
"c c gray85",
"v c gray89",
"b c gray91",
/* pixels */
"wwwq7=====*8wwwt",
"wwq7;aaaaai*8wwt",
"ww9@aaaaaasdo8wt",
"wq5.<aaaaslc328t",
"w9  .:::<szgue6t",
"w9     +4f1dX6wt",
"w0$ +31#bx#xOwwt",
"ww0$#bcubcuxOwwt",
"wwq7-upbbvge6wwt",
"ww9@i&+uuy>6wwwt",
"ww9@i,31 X6wwwwt",
"ww9@u#bx Owwwwwt",
"ww0%=+uy=*8wwwwt",
"www0$.=;auOwwwwt",
"wwww0%:::>6wwwwt",
"jjjjjh444rjjjjjk"
};
