/* XPM */
static char * character_down_xpm[] = {
"16 16 5 1",
" 	c #9C9C9C",
".	c #000001",
"+	c #F89850",
"@	c #F83808",
"f	c #F7E7D6",
"   ..........  f",
"f ............ff",
"f..............f",
"f..............f",
"ff............ff",
"ff..+......+..ff",
"f.+.++++++++.+.f",
"f.+++..++..+++. ",
"  ..++.++.++.. f",
"f ...++@@++...ff",
"f.++........++.f",
"f.++........++.f",
"ff............ff",
"fff.......... ff",
"ff ..........  f",
"f   ... f...    "};
