/* XPM */
static char * character_right_xpm[] = {
"16 16 4 1",
" 	c #9C9C9C",
".	c #000001",
"+	c #F89850",
"f	c #F7E7D6",
"     ......    f",
"f  .........  ff",
"ff...........fff",
"f.............ff",
"f..............f",
"ff............ff",
"ff......++++.  f",
"f  ..++.+..+.   ",
"    .+++++.+.  f",
"f    ..++++.  ff",
"ff  .......  fff",
"fff ..++..f ffff",
"ffff..++..ff fff",
"fff .......   ff",
"ff   ......    f",
"f     ....      "};
