/* XPM */
static char *_79bf081c9e74c5cb015e2903bcc8cf4yFW0erz9UZevNlsu[] = {
/* columns rows colors chars-per-pixel */
"16 16 52 1 ",
"  c gray8",
". c #2A1E16",
"X c #202020",
"o c #282828",
"O c gray18",
"+ c #323232",
"@ c #373737",
"# c #3A3A3A",
"$ c #3F3F3F",
"% c #422918",
"& c #492C18",
"* c #583319",
"= c #5F361A",
"- c #634632",
"; c #604736",
": c #444444",
"> c #4C4C4C",
", c #515151",
"< c gray33",
"1 c gray35",
"2 c #5D5D5D",
"3 c #735642",
"4 c #725948",
"5 c #6A5E56",
"6 c gray38",
"7 c gray43",
"8 c gray45",
"9 c #7B7B7B",
"0 c gray50",
"q c #86481D",
"w c #8D4B1E",
"e c #92542A",
"r c #9A5C31",
"t c #BB6021",
"y c #CA6723",
"u c #D16A23",
"i c #E97525",
"p c #FF7F27",
"a c #8B7261",
"s c #91857C",
"d c #CF9166",
"f c #FDA263",
"g c #FDA66A",
"h c #818181",
"j c gray53",
"k c gray56",
"l c gray60",
"z c #A4A4A4",
"x c gray67",
"c c gray75",
"v c #FBBD93",
"b c gray81",
/* pixels */
"pppie$$$$$;ypppf",
"ppie1lllll0;yppf",
"ppt#lllllll8*ppf",
"piq#lllllll8%ypf",
"pt O9lllllk< *pf",
"ir: O77777< o4yf",
"t,c:       ohx*f",
"u3zk1:   o17zswf",
"pt $zj$$$2z9 *pf",
"ir: X>7776+ o4yf",
"t,x #0:1,18 ,x*f",
"u39 O9xbck< $swf",
"pu&X+O777<X@.wpf",
"ppt#0$+ X$20*ppf",
"ppu-775=-775wppf",
"gggd22agd22agggv"
};
