/* XPM */
static char *result[] = {
/* columns rows colors chars-per-pixel */
"16 16 63 1 ",
"  c gray8",
". c #1B1B1B",
"X c gray12",
"o c #201915",
"O c #211A15",
"+ c #2D1F16",
"@ c #202020",
"# c #222222",
"$ c gray15",
"% c #2A2A2A",
"& c #7A421C",
"* c #4E4E4E",
"= c #5B534F",
"- c #515151",
"; c gray33",
": c #555555",
"> c #5D5752",
", c gray35",
"< c gray36",
"1 c #5D5D5D",
"2 c #5F5F5F",
"3 c gray39",
"4 c gray44",
"5 c #767676",
"6 c #777777",
"7 c #7B7B7B",
"8 c #7C7C7C",
"9 c #80451D",
"0 c #86481D",
"q c #8D4B1E",
"w c #934E1E",
"e c #99511F",
"r c #814A23",
"t c #874C23",
"y c #854E28",
"u c #8B5027",
"i c #E67425",
"p c #F27926",
"a c #F37A26",
"s c #FF7F27",
"d c #FE8C3D",
"f c #818181",
"g c gray51",
"h c #868686",
"j c #8F8883",
"k c #888888",
"l c #8B8B8B",
"z c #929292",
"x c gray60",
"c c #B4B4B4",
"v c gray72",
"b c #BBBBBB",
"n c gray74",
"m c #EFB48B",
"M c #FCBA8C",
"N c #FBC098",
"B c gray76",
"V c #C6C6C6",
"C c #D2D2D2",
"Z c gainsboro",
"A c #DDDDDD",
"S c #E4E4E4",
"D c gray91",
/* pixels */
"ssssaqqqqqessssd",
"sssat;;;;;=esssd",
"ssat<xxxxxz=essd",
"sa9$bxxxxxxl+ssd",
"au7hSbxxxxz-Oesd",
"pyfkBnz,,,-  +sd",
"sp&$c3v4     +sd",
"ssi%C%DCX74 owsd",
"ssi%ZhDZhDCowssd",
"sspykVDDAf8=essd",
"ssspr1ff5 #l+ssd",
"ssaq9   X76-+ssd",
"sat;*.;*%DC.=esd",
"spr2z:,-@f8<l+sd",
"sspr,-o000r,>wsd",
"MMMmggjMMMmgjMMN"
};
