/* XPM */
static char * character_left_xpm[] = {
"16 16 4 1",
" 	c #9C9C9C",
".	c #000001",
"+	c #F89850",
"f	c #F7E7D6",
"     ......    f",
"f   ......... ff",
"ff ...........ff",
"ff.............f",
"f..............f",
"ff............ff",
"ff .++++...... f",
"f  .+..+.++..   ",
"   .+.+++++.   f",
"f   .++++..   ff",
"ff   ....... fff",
"fff ff..++..ffff",
"ffff f..++.. fff",
"fff  .......  ff",
"ff   ......    f",
"f     ....      "};
