/* XPM */
static char *result[] = {
/* columns rows colors chars-per-pixel */
"16 16 63 1 ",
"  c gray8",
". c #1D1D1D",
"X c #241C15",
"o c #342317",
"O c #232323",
"+ c gray15",
"@ c gray19",
"# c #313131",
"$ c #373737",
"% c #452A18",
"& c #523019",
"* c #63381A",
"= c #57463A",
"- c #65432B",
"; c #6F4D36",
": c gray25",
"> c #414141",
", c #464646",
"< c #494949",
"1 c #4C4C4C",
"2 c #535353",
"3 c gray33",
"4 c #565656",
"5 c #5A5A5A",
"6 c #5B5B5B",
"7 c #6C5B4F",
"8 c #6B625B",
"9 c gray38",
"0 c gray39",
"q c DimGray",
"w c #6C6C6C",
"e c #767676",
"r c gray47",
"t c gray49",
"y c #83471D",
"u c #904C1E",
"i c #995627",
"p c #9F5B2D",
"a c #B05B21",
"s c #C16322",
"d c #CE6923",
"f c #DF7024",
"g c #EE7726",
"h c #FF7F27",
"j c #816F63",
"k c #FE9852",
"l c #DD996B",
"z c #FDA86D",
"x c #848484",
"c c gray53",
"v c #8D8D8D",
"b c #948B85",
"n c #909090",
"m c #939393",
"M c gray60",
"N c gray63",
"B c #A4A4A4",
"V c #BCBCBC",
"C c #FCB88A",
"Z c #C3C3C3",
"A c #CBCBCB",
"S c #CDCDCD",
"D c gray91",
/* pixels */
"hhhhgaaaaashhhhk",
"hhhgi>>>>>=shhhk",
"hhgi2MMMMMc=shhk",
"hhd@MMMMMMMt%hhk",
"hgu@MMMMMMMtoshk",
"hd +eMMMMMn5 %hk",
"gp1 +wwwww5 O7sk",
"d:A1       OrV%k",
"d#Nm61   O6qNbyk",
"dO1#Nv>>>3Nx %hk",
"f;x .<www0$O67sk",
"hf& @c,642t:DV%k",
"hhf&+eBSZn5#Nbyk",
"hhhd.<www8***yhk",
"hhhf-5 X*yhhhhhk",
"zzzzl99jzzzzzzzC"
};
