/* XPM */
static char *result[] = {
/* columns rows colors chars-per-pixel */
"16 16 61 1 ",
"  c gray8",
". c gray9",
"X c #191614",
"o c #1D1D1D",
"O c #241C15",
"+ c #202020",
"@ c gray13",
"# c #232323",
"$ c #272727",
"% c #282828",
"& c gray19",
"* c gray20",
"= c #3C3C3C",
"- c #3F3F3F",
"; c #462B18",
": c #4A2D18",
"> c #5B341A",
", c #4F3421",
"< c #5A3F2C",
"1 c #413831",
"2 c #414141",
"3 c #434343",
"4 c gray27",
"5 c gray30",
"6 c #514842",
"7 c #717171",
"8 c #767371",
"9 c gray46",
"0 c gray48",
"q c gray49",
"w c #B85F21",
"e c #BB6124",
"r c #BC6325",
"t c #C96623",
"y c #CD6823",
"u c #CD7336",
"i c #EE7726",
"p c #FA7D27",
"a c #FF7F27",
"s c #FE8A3A",
"d c #FD9B57",
"f c #FDA366",
"g c #8D8D8D",
"h c #909090",
"j c gray59",
"k c gray60",
"l c #9F9F9F",
"z c #A0A0A0",
"x c gray66",
"c c gray67",
"v c #B1B1B1",
"b c #B4B4B4",
"n c #B7B7B7",
"m c #BBBBBB",
"M c #D0D0D0",
"N c #D5D5D5",
"B c gray85",
"V c gray87",
"C c #E4E4E4",
"Z c #E6E6E6",
"A c gray91",
/* pixels */
"ssssu%%%%%<ssssf",
"aaay1ggggg8>aaad",
"aay1hkkkkkj8>aad",
"ayO3Mkkkkkk0:aad",
"y6NBZMkkkkqoX>ad",
"pr$3zlq+++o  :ad",
"apw3b5Vx     :ad",
"aat4n4An2Nx ;iad",
"aat4CBACBAn;iaad",
"aapr3vAAm$-8>aad",
"aaape@$$#&h0:aad",
"aaaapw 2Nc=0:aad",
"aaaaat 4An*0:aad",
"aaaay1g9$#.,iaad",
"aaaat*kjg7;iaaad",
"aaaape+++,iaaaad"
};
