/* XPM */
static char *result[] = {
/* columns rows colors chars-per-pixel */
"16 16 62 1 ",
"  c gray8",
". c #171514",
"X c #161616",
"o c #1B1715",
"O c #1E1915",
"+ c #181818",
"@ c gray10",
"# c #1B1B1B",
"$ c #1D1D1D",
"% c #1E1E1E",
"& c gray20",
"* c #343434",
"= c #373737",
"- c #3A3633",
"; c gray22",
": c #393939",
"> c #4A2D18",
", c #4D2E19",
"< c #4E311D",
"1 c #543119",
"2 c #51331F",
"3 c #543622",
"4 c gray27",
"5 c gray28",
"6 c #4C4845",
"7 c gray30",
"8 c #4E4E4E",
"9 c gray46",
"0 c #777675",
"q c #767676",
"w c #777777",
"e c #797979",
"r c gray48",
"t c #BF6222",
"y c #C06323",
"u c #C66522",
"i c #C16424",
"p c #C96623",
"a c #C96C2C",
"s c #F87C26",
"d c #FC7E27",
"f c #FF7F27",
"g c #FF8430",
"h c #FD9C5A",
"j c #FDA060",
"k c #939393",
"l c #959595",
"z c #979797",
"x c gray60",
"c c #9A9A9A",
"v c #9B9B9B",
"b c gray61",
"n c #A5A5A5",
"m c #AEAEAE",
"M c #B1AFAE",
"N c gray71",
"B c #B7B7B7",
"V c #CDCDCD",
"C c #DFDFDF",
"Z c #E1E1E1",
"A c gray90",
"S c gray91",
/* pixels */
"hfffs<@@@@@ydfff",
"hffs<rxxxxx;ydff",
"hff,exxxxxxx*uff",
"hfs>9zvbbbcl&tdf",
"hf, #wVCCCn:X uf",
"hs2XN8$$$$$B5#id",
"h,N8BSZASZAS8B5u",
"h1MCAS5NS5NSZC6p",
"hf, mA8NA7BZ4 uf",
"hs2$XmCnkVC4#$id",
"h,NS5       NS5u",
"h1MC4+@X +@XmC6p",
"hf1.+qk=@qk=Xopf",
"hff,e;@qk=@r*uff",
"hff10kk-O0kk-pff",
"jggg3%%ag3%%aggg"
};
