/* XPM */
static char * collectible_xpm[] = {
"16 16 5 1",
" 	c #9C9C9C",
".	c #000001",
"+	c #F83808",
"@	c #F89850",
"f	c #F7E7D6",
"       f       f",
"f     fff     ff",
"ff   f....   fff",
"fff ..++++..ffff",
"fff.+++@@+++.fff",
"fff.+++@@+++. ff",
"ff.++++++++++. f",
"f .++++++++++.  ",
"  .@@++++++@@. f",
"f .@@@@@@@@@@.ff",
"ff .@@@@@@@@.fff",
"fff.@@@@@@@@.fff",
"ffff..@@@@.. fff",
"fff   ....f   ff",
"ff     fff     f",
"f       f       "};
