/* XPM */
static char * exit_xpm[] = {
"16 16 5 1",
" 	c None",
".	c #393939",
"+	c #F7E7D6",
"@	c #9C9C9C",
"#	c #6B6B6B",
"          ......",
"          .++++.",
"     ......++++.",
"     .++++.++++.",
"......++++.++++.",
".++++.+++@.++++.",
".++++.++@@.++++.",
".+++@.+@@@.++++.",
".++@@.@@@@.++++.",
".+@@@.@@@@......",
".@@@@.@@@@.####.",
".@@@@......####.",
".@@@@.#########.",
"......#########.",
".##############.",
".##############."};
