/* XPM */
static char *c39491b534704641c880fed067ffda31Q4lOIqECW55APcEp[] = {
/* columns rows colors chars-per-pixel */
"16 16 39 1 ",
"  c #181010",
". c #1E1413",
"X c #1D1716",
"o c #1D1817",
"O c #2A1C17",
"+ c #22191A",
"@ c #2A1C18",
"# c #2F231E",
"$ c #30201A",
"% c #262523",
"& c #272624",
"* c #2D2A26",
"= c #2C2D2A",
"- c #332A2C",
"; c #342B2D",
": c #393233",
"> c #966441",
", c #996948",
"< c #9F7653",
"1 c #A47D59",
"2 c #7CA396",
"3 c #82A798",
"4 c #82A899",
"5 c #81AB9D",
"6 c #94B39F",
"7 c #8BB9AA",
"8 c #8FBFAF",
"9 c #93B6A3",
"0 c #90BCAB",
"q c #91BDAC",
"w c #97BDB2",
"e c #98BEB3",
"r c #90C0B0",
"t c #D3C5D2",
"y c #DCCDDB",
"u c #DCCEDC",
"i c #E2DAE5",
"p c #EEDFEE",
"a c #EBE2EE",
/* pixels */
"r781919rr78rr19r",
"5r1$X.5rrr=oo4rr",
"816&t-Xooo t-5rr",
"rq1Oy;     y;5rr",
"5r* yeipppwa;X5r",
"8r& y:++++ou; 5r",
"5=  y;     y; X5",
"8&  yeipppwa;  5",
"r&  ,#++++o,@  5",
"5&  >O     >O  5",
"8<O 37777770& 28",
"rq& 5=ooooo5& 5r",
"5r7%X      X 28r",
"8rr77%     278rr",
"5rrrr7777778rrrr",
"8rrrrrrrrrrrrrrr"
};
