/* XPM */
static char *_a499327f44d44b9c19ad8c9d6573946umywoDETpvhxLn4o[] = {
/* columns rows colors chars-per-pixel */
"16 16 15 1 ",
"  c #1C1515",
". c #3F2A20",
"X c #373E3A",
"o c #383F3B",
"O c #A28563",
"+ c #A18664",
"@ c #719286",
"# c #73968A",
"$ c #749589",
"% c #96AB95",
"& c #96AD97",
"* c #8DBBAB",
"= c #8FBFAF",
"- c #91BEAE",
"; c #90C0B0",
/* pixels */
"=*%O%+===*%O%+==",
"$.O%+;#o$.O%+;#o",
"&O%+;;;;&O%+;;;;",
"=&+;===*=&+;===*",
"o;;=@X@ o;;=@X@ ",
";;;#X@X=;;;#X@X=",
"==;;#o#o==;;#o#o",
"#o----;;#o----;;",
"=*%O%+===*%O%+==",
"$.O%+;#o$.O%+;#o",
"&O%+;;;;&O%+;;;;",
"=&+;===*=&+;===*",
"o;;=@X@ o;;=@X@ ",
";;;#X@X=;;;#X@X=",
"==;;#o#o==;;#o#o",
"#o----;;#o----;;"
};
