/* XPM */
static char * floor_xpm[] = {
"16 16 2 1",
" 	c #9C9C9C",
".	c #F7E7D6",
"       .       .",
".     ...     ..",
"..   .....   ...",
"... ....... ....",
".... ....... ...",
"...   .....   ..",
"..     ...     .",
".       .       ",
"       .       .",
".     ...     ..",
"..   .....   ...",
"... ....... ....",
".... ....... ...",
"...   .....   ..",
"..     ...     .",
".       .       "};
