/* XPM */
static char *cdf8dadaab5f4cc6d028a8ea91256a95lyza6TQrBggXcQva[] = {
/* columns rows colors chars-per-pixel */
"16 16 70 1 ",
"  c #181010",
". c #1C1312",
"X c #1E1412",
"o c #1F1717",
"O c #22191A",
"+ c #3A261D",
"@ c #3B281E",
"# c #3E291F",
"$ c #3C2920",
"% c #3D2C22",
"& c #3F2E24",
"* c #343935",
"= c #393C37",
"- c #383F3A",
"; c #412C22",
": c #3A403B",
"> c #39413C",
", c #534749",
"< c #53494E",
"1 c #554A4E",
"2 c #805538",
"3 c #86593B",
"4 c #845B3D",
"5 c #855D3F",
"6 c #895D40",
"7 c #9C7F5E",
"8 c #A36D46",
"9 c #A66F47",
"0 c #A46E48",
"q c #A7724B",
"w c #A7734C",
"e c #A87149",
"r c #A9734D",
"t c #AA744D",
"y c #9E8160",
"u c #A28360",
"i c #A38462",
"p c #A28564",
"a c #A58666",
"s c #B5886F",
"d c #BB8C71",
"f c #BA8F74",
"g c #BD9077",
"h c #6F8F84",
"j c #719286",
"k c #759386",
"l c #759487",
"z c #74978A",
"x c #97AA93",
"c c #96AB94",
"v c #96AD98",
"b c #99AE9A",
"n c #8BB8A9",
"m c #8DBAAA",
"M c #8FBEAE",
"N c #91BDAD",
"B c #BCAFBA",
"V c #C0B1BB",
"C c #90C0B0",
"Z c #94C2B3",
"A c #A9C7BE",
"S c #A9C8C0",
"D c #ACCAC2",
"F c #DDC4C5",
"G c #D7D7DF",
"H c #E2C7C7",
"J c #E3C8C9",
"K c #DBDCE3",
"L c #F5E3F0",
"P c #F3E6F5",
/* pixels */
"CCMnjOOoOo>mMmCC",
"MnjX,LJgJgV=h*mN",
"jo$tetgJgHe5. #y",
"<B1HiDJgHeux2#2=",
"B,JtdJgHeee3#2%2",
"@egJqdHeeqeq2=h*",
"@dJaxeeepcpk#2o*",
"@egHeeeucpcq2=h*",
"+sFeeqeeuxul%2o*",
"  #0avteer8uj-h*",
" ;6,GSJwfV%2=jo*",
"@dJ5:cpZbpl%2-h*",
"@97mcpAPKcpj*jo ",
"%2 #yvpCvpc2.*j>",
"zo#2=nnnnnj#2o>C",
"Cv5&4     @5&pCC"
};
