/* XPM */
static char * wall_xpm[] = {
"16 16 4 1",
" 	c #AD8C39",
".	c #393939",
"+	c #D6C68C",
"@	c #846B18",
" .............. ",
".              .",
". +++++++++++  .",
". +          @ .",
". +          @ .",
". +          @ .",
".  @@@@@@@@@@@ .",
".              .",
".@@@@@@@@@@@@@@.",
".@@..@@@@@@..@@.",
".@@+ ..@@..+ @@.",
".@@@@+ ..+ @@@@.",
".@@@@..+ ..@@@@.",
".@@..+ @@+ ..@@.",
".@@+ @@@@@@+ @@.",
" .............. "};
